<svg width="1280" height="720" viewBox="0 0 1280 720" fill="none" xmlns="http://www.w3.org/2000/svg">
  <defs>
    <linearGradient id="bgPipe" x1="0" y1="0" x2="1280" y2="720" gradientUnits="userSpaceOnUse">
      <stop stop-color="#050A1A"/>
      <stop offset="1" stop-color="#0C1624"/>
    </linearGradient>
    <linearGradient id="framePipe" x1="120" y1="90" x2="1160" y2="620" gradientUnits="userSpaceOnUse">
      <stop stop-color="#111827"/>
      <stop offset="1" stop-color="#0F172A"/>
    </linearGradient>
    <linearGradient id="accentPipe" x1="170" y1="170" x2="1110" y2="170" gradientUnits="userSpaceOnUse">
      <stop stop-color="#71AB23"/>
      <stop offset="0.5" stop-color="#0689E4"/>
      <stop offset="1" stop-color="#0032DB"/>
    </linearGradient>
  </defs>

  <rect width="1280" height="720" fill="url(#bgPipe)"/>
  <rect x="120" y="90" width="1040" height="540" rx="26" fill="url(#framePipe)" stroke="#1F2937"/>

  <text x="180" y="158" fill="#E5E7EB" font-family="Inter, Arial, sans-serif" font-size="33" font-weight="700">
    Testing Equipment Repair Pipeline Dashboard
  </text>

  <rect x="180" y="175" width="930" height="10" rx="5" fill="url(#accentPipe)"/>

  <rect x="180" y="220" width="290" height="160" rx="14" fill="#0B1220" stroke="#334155"/>
  <rect x="500" y="220" width="280" height="160" rx="14" fill="#0B1220" stroke="#334155"/>
  <rect x="810" y="220" width="300" height="160" rx="14" fill="#0B1220" stroke="#334155"/>

  <rect x="205" y="250" width="170" height="18" rx="9" fill="#1E293B"/>
  <rect x="205" y="282" width="220" height="12" rx="6" fill="#475569"/>
  <rect x="205" y="304" width="180" height="12" rx="6" fill="#475569"/>
  <rect x="205" y="326" width="135" height="12" rx="6" fill="#475569"/>

  <rect x="530" y="250" width="120" height="20" rx="10" fill="#065F46"/>
  <rect x="530" y="284" width="210" height="12" rx="6" fill="#475569"/>
  <rect x="530" y="306" width="200" height="12" rx="6" fill="#475569"/>
  <rect x="530" y="328" width="160" height="12" rx="6" fill="#475569"/>

  <rect x="840" y="250" width="140" height="20" rx="10" fill="#1E40AF"/>
  <rect x="840" y="284" width="220" height="12" rx="6" fill="#475569"/>
  <rect x="840" y="306" width="200" height="12" rx="6" fill="#475569"/>
  <rect x="840" y="328" width="170" height="12" rx="6" fill="#475569"/>

  <rect x="180" y="410" width="930" height="170" rx="16" fill="#0B1220" stroke="#334155"/>
  <path d="M230 520C320 500 360 450 460 460C560 470 620 540 720 520C820 500 900 430 980 440C1030 446 1060 462 1090 470" stroke="url(#accentPipe)" stroke-width="7" stroke-linecap="round"/>
  <circle cx="460" cy="460" r="8" fill="#71AB23"/>
  <circle cx="720" cy="520" r="8" fill="#0689E4"/>
  <circle cx="980" cy="440" r="8" fill="#0032DB"/>
</svg>
